<?xml version="1.0" encoding="utf-8"?>
<!-- Generator: Adobe Illustrator 26.2.1, SVG Export Plug-In . SVG Version: 6.00 Build 0)  -->
<svg version="1.1" id="Layer_16" xmlns="http://www.w3.org/2000/svg" xmlns:xlink="http://www.w3.org/1999/xlink" x="0px" y="0px"
	 viewBox="0 0 610.9 399.6" style="enable-background:new 0 0 610.9 399.6;" xml:space="preserve">
<style type="text/css">
	.st0{fill:#ECEDF0;}
	.st1{fill:#6B6B6B;}
	.st2{fill:#959394;}
	.st3{fill:#515251;}
	.st4{fill:#FFFFFF;}
	.st5{fill:#E6E7EB;}
	.st6{fill:#BFBFBF;}
	.st7{fill:#FBFAFC;}
	.st8{fill:#37B35B;}
	.st9{fill:#F3F2F5;}
	.st10{fill:#E2BFBE;}
	.st11{fill:#8CCD9F;}
	.st12{fill:#4074BA;}
	.st13{fill:#F7F8F8;}
	.st14{fill:#B0B0B0;}
	.st15{fill:#F7B519;}
	.st16{fill:#FCD6D5;}
	.st17{fill:#72433F;}
	.st18{fill:#592828;}
	.st19{fill:#B27D62;}
	.st20{fill:#AB726E;}
	.st21{fill:#F04A3A;}
</style>
<g>
	<rect class="st0" width="610.9" height="399.6"/>
	<g>
		<path class="st1" d="M607.3,377.7H23.4c-1.1,0-2-0.9-2-2s0.9-2,2-2h583.9c1.1,0,2,0.9,2,2S608.5,377.7,607.3,377.7z"/>
	</g>
	<g>
		<path class="st2" d="M82.1,212.3L63.5,341.5c-2.5,17,10.7,32.2,27.9,32.2h486.2L539.8,213L82.1,212.3z"/>
	</g>
	<g>
		<circle class="st3" cx="75.4" cy="273.8" r="0.8"/>
	</g>
	<g>
		<circle class="st3" cx="80.7" cy="288.5" r="0.8"/>
	</g>
	<g>
		<circle class="st3" cx="75.3" cy="303.5" r="0.8"/>
	</g>
	<g>
		<circle class="st3" cx="82.1" cy="318.4" r="0.8"/>
	</g>
	<g>
		<circle class="st3" cx="69.4" cy="318.4" r="0.8"/>
	</g>
	<g>
		<circle class="st3" cx="75" cy="333.4" r="0.8"/>
	</g>
	<g>
		<circle class="st3" cx="68.1" cy="348.1" r="0.8"/>
	</g>
	<g>
		<circle class="st3" cx="75.8" cy="363.4" r="0.8"/>
	</g>
	<g>
		<circle class="st3" cx="89.7" cy="363.1" r="0.8"/>
	</g>
	<g>
		<circle class="st3" cx="103.6" cy="362.8" r="0.8"/>
	</g>
	<g>
		<circle class="st3" cx="118.8" cy="363.1" r="0.8"/>
	</g>
	<g>
		<circle class="st3" cx="132.7" cy="362.8" r="0.8"/>
	</g>
	<g>
		<circle class="st3" cx="146.6" cy="362.6" r="0.8"/>
	</g>
	<g>
		<circle class="st3" cx="160.8" cy="362.8" r="0.8"/>
	</g>
	<g>
		<circle class="st3" cx="174.7" cy="362.6" r="0.8"/>
	</g>
	<g>
		<circle class="st3" cx="188.6" cy="362.3" r="0.8"/>
	</g>
	<g>
		<circle class="st3" cx="203.7" cy="362.8" r="0.8"/>
	</g>
	<g>
		<circle class="st3" cx="217.6" cy="362.6" r="0.8"/>
	</g>
	<g>
		<circle class="st3" cx="231.5" cy="362.3" r="0.8"/>
	</g>
	<g>
		<circle class="st3" cx="246.6" cy="362.6" r="0.8"/>
	</g>
	<g>
		<circle class="st3" cx="260.5" cy="362.3" r="0.8"/>
	</g>
	<g>
		<circle class="st3" cx="274.4" cy="362" r="0.8"/>
	</g>
	<g>
		<circle class="st3" cx="291.4" cy="362.6" r="0.8"/>
	</g>
	<g>
		<circle class="st3" cx="305.3" cy="362.3" r="0.8"/>
	</g>
	<g>
		<circle class="st3" cx="319.2" cy="362" r="0.8"/>
	</g>
	<g>
		<circle class="st3" cx="335" cy="363.7" r="0.8"/>
	</g>
	<g>
		<circle class="st3" cx="349" cy="363.4" r="0.8"/>
	</g>
	<g>
		<circle class="st3" cx="362.9" cy="363.1" r="0.8"/>
	</g>
	<g>
		<circle class="st3" cx="375.1" cy="363.4" r="0.8"/>
	</g>
	<g>
		<circle class="st3" cx="388" cy="363.4" r="0.8"/>
	</g>
	<g>
		<circle class="st3" cx="82" cy="348.1" r="0.8"/>
	</g>
	<g>
		<circle class="st3" cx="96" cy="348.1" r="0.8"/>
	</g>
	<g>
		<circle class="st3" cx="110" cy="348.1" r="0.8"/>
	</g>
	<g>
		<circle class="st3" cx="123.9" cy="348.1" r="0.8"/>
	</g>
	<g>
		<circle class="st3" cx="137.9" cy="348.1" r="0.8"/>
	</g>
	<g>
		<circle class="st3" cx="151.8" cy="348.1" r="0.8"/>
	</g>
	<g>
		<circle class="st3" cx="165.8" cy="348.1" r="0.8"/>
	</g>
	<g>
		<circle class="st3" cx="179.7" cy="348.1" r="0.8"/>
	</g>
	<g>
		<circle class="st3" cx="193.7" cy="348.1" r="0.8"/>
	</g>
	<g>
		<circle class="st3" cx="207.6" cy="348.1" r="0.8"/>
	</g>
	<g>
		<circle class="st3" cx="221.6" cy="348.1" r="0.8"/>
	</g>
	<g>
		<circle class="st3" cx="235.5" cy="348.1" r="0.8"/>
	</g>
	<g>
		<circle class="st3" cx="249.5" cy="348.1" r="0.8"/>
	</g>
	<g>
		<circle class="st3" cx="263.4" cy="348.1" r="0.8"/>
	</g>
	<g>
		<circle class="st3" cx="277.4" cy="348.1" r="0.8"/>
	</g>
	<g>
		<circle class="st3" cx="291.3" cy="348.1" r="0.8"/>
	</g>
	<g>
		<circle class="st3" cx="305.3" cy="348.1" r="0.8"/>
	</g>
	<g>
		<circle class="st3" cx="319.3" cy="348.1" r="0.8"/>
	</g>
	<g>
		<circle class="st3" cx="333.2" cy="348.1" r="0.8"/>
	</g>
	<g>
		<circle class="st3" cx="347.2" cy="348.1" r="0.8"/>
	</g>
	<g>
		<circle class="st3" cx="361.1" cy="348.1" r="0.8"/>
	</g>
	<g>
		<circle class="st3" cx="375.1" cy="348.1" r="0.8"/>
	</g>
	<g>
		<circle class="st3" cx="89.5" cy="333.2" r="0.8"/>
	</g>
	<g>
		<path class="st4" d="M62.9,71l22.4,243.1c1.3,14.2,13.2,25.1,27.5,25.1h416.1c16.2,0,28.9-13.8,27.6-30L536.5,70.9
			c-1.5-17.8-16.3-31.4-34.2-31.4H91.6C74.6,39.5,61.3,54.1,62.9,71z"/>
	</g>
	<g>
		<g>
			<g>
				<path class="st5" d="M116.6,309.8c-2.2,0-4-1.7-4.1-3.8l-19.6-231c-0.1-1.7,0.4-3.4,1.6-4.6s2.8-2,4.5-2h401.2
					c2.9,0,5.4,2.3,5.6,5.2l19.4,233.4c0.1,1.2-0.3,2.3-1.1,3.2c-0.8,0.9-1.9,1.3-3.1,1.3L116.6,309.8z"/>
			</g>
		</g>
		<g>
			<g>
				<path class="st6" d="M500.1,68.8c2.7,0,4.9,2.1,5.1,4.7L524.6,307c0.2,2.1-1.5,4-3.7,4c0,0,0,0,0,0l-404.4-1.7
					c-1.9,0-3.5-1.5-3.6-3.4l-19.6-231c-0.3-3.3,2.3-6.1,5.6-6.1H500.1 M500.1,67.8H98.9c-1.8,0-3.6,0.8-4.9,2.1
					c-1.2,1.4-1.9,3.2-1.7,5L112,306c0.2,2.4,2.2,4.3,4.6,4.3L521,312c1.3,0,2.6-0.6,3.5-1.5c0.9-1,1.3-2.3,1.2-3.6L506.3,73.5
					C506,70.3,503.3,67.8,500.1,67.8L500.1,67.8z"/>
			</g>
		</g>
	</g>
	<g>
		<path class="st7" d="M157.9,168.1L103,188.9l-2-23l-7.2-85.3l-0.5-5.6c-0.3-3.3,2.3-6.1,5.6-6.1h13.6L157.9,168.1z"/>
	</g>
	<g>
		<polygon class="st8" points="127.8,155.8 101.1,165.8 93.8,80.5 		"/>
	</g>
	<g>
		<polygon class="st9" points="218.7,309.7 137.2,309.4 168.3,225.5 183.6,225.5 		"/>
	</g>
	<g>
		<polygon class="st10" points="196.3,309.6 162.9,309.5 178,266.4 		"/>
	</g>
	<g>
		<path class="st7" d="M518.1,227.8l-207.5,82.3l-30.2-0.1l-8.1,0l-33.1-0.1L348,268L255,68.8h245.1c2.7,0,4.9,2.1,5.1,4.7
			L518.1,227.8z"/>
	</g>
	<g>
		<polygon class="st0" points="281.1,68.8 350.7,68.8 290.4,88.5 		"/>
	</g>
	<g>
		<path class="st0" d="M509.9,129.5l-44.7,18.6c0,0-10.9-28.8-27-54.8c-9-14.6-18.3-21.4-24.8-24.5h86.8c2.7,0,4.9,2.1,5.1,4.7
			L509.9,129.5z"/>
	</g>
	<g>
		<path class="st0" d="M300.4,111.5l38.5,85.1l105.7-40.6l-25.5-52c-8.1-16.5-27.3-24.4-44.6-18.3L300.4,111.5z"/>
	</g>
	<g>
		<polygon class="st11" points="516.3,206.1 368.5,262.7 347.3,216 511.9,153.5 		"/>
	</g>
	<g>
		
			<ellipse transform="matrix(0.6884 -0.7254 0.7254 0.6884 77.3763 375.1906)" class="st4" cx="475.3" cy="97.5" rx="10.7" ry="11.8"/>
	</g>
	<g>
		<g>
			<path class="st12" d="M476,104.6c-2.2,0-4.3-1-5.8-2.6c-0.2-0.3-0.5-0.5-0.7-0.9c-0.7-1-1.2-2.3-1.3-3.5c-0.2-1.9,0.4-3.7,1.6-5
				c1.2-1.3,2.9-2.1,4.8-2.1c3.9,0,7.3,3.1,7.7,7c0.1,1.1,0,2.2-0.4,3.1l0,0.1c-0.2,0.4-0.3,0.7-0.5,1
				C480.2,103.5,478.3,104.6,476,104.6z M474.7,91.5c-1.6,0-3,0.6-4,1.7c-1,1.1-1.5,2.6-1.3,4.3c0.1,1.1,0.5,2.1,1.1,3
				c0.2,0.3,0.4,0.5,0.6,0.7c1.3,1.5,3.1,2.3,5,2.3c1.9,0,3.6-0.9,4.5-2.4c0.2-0.2,0.3-0.5,0.4-0.8l0,0c0.3-0.9,0.5-1.8,0.4-2.8
				C481,94.2,478,91.5,474.7,91.5z"/>
		</g>
	</g>
	<g>
		<g>
			<path class="st12" d="M481.5,100.5L481.5,100.5c-0.1,0.3-0.3,0.6-0.5,0.9l-1.5-1.5c-0.3-0.4-0.8-0.5-1.3-0.5h-4.8
				c-0.5,0-1,0.2-1.4,0.6l-1.3,1.5c-0.2-0.2-0.4-0.5-0.6-0.8l1.2-1.4c0.5-0.6,1.3-1,2.2-1h4.8c0.8,0,1.5,0.3,2,0.8L481.5,100.5z"/>
		</g>
	</g>
	<g>
		<g>
			<path class="st12" d="M475.6,98c-1.2,0-2.3-1-2.5-2.4c-0.1-0.7,0.1-1.5,0.5-2c0.4-0.4,0.9-0.7,1.4-0.7c1.2,0,2.4,1,2.6,2.4
				c0.1,0.7-0.1,1.5-0.5,2C476.7,97.8,476.2,98,475.6,98C475.6,98,475.6,98,475.6,98z M475.1,93.9C475.1,93.9,475.1,93.9,475.1,93.9
				c-0.4,0-0.6,0.2-0.7,0.4c-0.2,0.3-0.3,0.7-0.3,1.2l0,0c0.1,0.9,0.8,1.6,1.5,1.6c0,0,0,0,0,0c0.3,0,0.6-0.2,0.7-0.4
				c0.2-0.3,0.3-0.7,0.3-1.2C476.5,94.6,475.8,93.9,475.1,93.9z"/>
		</g>
	</g>
	<g>
		<path class="st12" d="M358.3,261.2c5.7,13.7-1.2,18.6-1.5,18.8l-0.3,0.2L280.4,310l-8.1,0l82.9-32.5c0.7-0.6,4.7-4.5,0.3-15.1
			c-5.2-12.6-19.7-42.4-19.9-42.7c-0.1-0.1-2-3.9-0.5-8c1-2.9,3.2-5.1,6.7-6.7c9.6-4.5,23.4-9.1,23.5-9.1l1,2.8
			c-0.1,0-13.7,4.6-23.2,9c-2.7,1.2-4.4,2.9-5.1,5c-1,2.9,0.4,5.8,0.4,5.8C338.5,218.6,353,248.5,358.3,261.2z"/>
	</g>
	<g>
		<path class="st4" d="M130.5,132.6h148.6c4.6,0,8.4,3.4,9,8l5.9,47.2c0.7,5.7-3.8,10.8-9.5,10.8H138.1c-4.4,0-8-3.3-8.4-7.7
			l-5.1-51.8C124.3,135.6,127,132.6,130.5,132.6z"/>
	</g>
	<g>
		<path class="st4" d="M138.3,202.2h86.5c3.2,0,5.9,2.4,6.3,5.6l2.2,18.9c0.4,3.7-2.5,7-6.2,7.1l-87.2,1.2c-3.4,0-6.2-2.5-6.4-5.9
			l-1.4-20.1C131.7,205.3,134.6,202.2,138.3,202.2z"/>
	</g>
	<g>
		<path class="st13" d="M140.8,239h29.5c3.2,0,5.9,2.4,6.3,5.6l2.2,17.9c0.4,3.7-2.5,7-6.2,7.1l-30.2,1.2c-3.4,0-6.2-2.5-6.4-5.9
			l-1.4-19.1C134.2,242.1,137.1,239,140.8,239z"/>
	</g>
	<g>
		<path class="st12" d="M374.1,203.8c-4.8,0-9.1-4.1-9.6-9.1l0,0c-0.3-2.5,0.5-5,2.1-6.8c1.5-1.7,3.6-2.6,5.9-2.6c0,0,0,0,0,0
			c4.8,0,9.1,4.1,9.6,9.1c0.3,2.5-0.5,5-2.1,6.8C378.5,202.9,376.4,203.8,374.1,203.8L374.1,203.8z M372.4,187.3
			C372.4,187.3,372.4,187.3,372.4,187.3c-1.7,0-3.3,0.7-4.4,1.9c-1.2,1.4-1.8,3.2-1.6,5.2l0,0c0.4,4,3.8,7.3,7.6,7.3c0,0,0,0,0,0
			c1.7,0,3.3-0.7,4.4-1.9c1.2-1.4,1.8-3.2,1.6-5.2C379.7,190.6,376.3,187.3,372.4,187.3z"/>
	</g>
	<g>
		<path d="M143.8,216.4l-0.2-0.8c0.8-0.1,1.3-0.2,1.5-0.4c0.3-0.2,0.4-0.6,0.4-1.2l0.8,0l1.8,8.2l-1.1,0l-1.3-5.8L143.8,216.4z"/>
		<path d="M151.8,220.1c0.2,0.6,0.6,1,1.1,1.2c0.3,0.1,0.6,0.2,0.9,0.2c0.6,0,1.1-0.2,1.3-0.6c0.2-0.4,0.3-0.8,0.2-1.3
			c-0.1-0.6-0.4-1-0.8-1.3c-0.4-0.3-0.9-0.5-1.4-0.5c-0.4,0-0.7,0.1-0.9,0.2c-0.2,0.1-0.4,0.3-0.5,0.6l-0.9-0.1l-0.3-4.4l4.4,0
			l0.2,1l-3.6,0l0.1,2.3c0.2-0.1,0.3-0.3,0.5-0.3c0.3-0.1,0.6-0.2,1.1-0.2c0.8,0,1.5,0.2,2.1,0.7c0.7,0.5,1.1,1.1,1.2,1.9
			c0.2,0.8,0.1,1.5-0.3,2.1c-0.4,0.6-1.1,0.9-2.2,0.9c-0.7,0-1.4-0.2-2-0.6c-0.6-0.4-1-1-1.3-1.7L151.8,220.1z"/>
		<path d="M160.3,216l1.1,0l0.2,0.9c0.2-0.3,0.4-0.5,0.5-0.7c0.3-0.2,0.7-0.4,1.1-0.4c0.5,0,0.9,0.1,1.3,0.4
			c0.2,0.1,0.4,0.3,0.6,0.6c0.2-0.3,0.4-0.6,0.7-0.7c0.3-0.2,0.6-0.2,1-0.2c0.9,0,1.5,0.3,1.9,0.9c0.2,0.3,0.4,0.8,0.5,1.3l0.9,4.1
			l-1.1,0l-0.9-4.3c-0.1-0.4-0.3-0.7-0.5-0.8c-0.2-0.2-0.5-0.2-0.8-0.2c-0.4,0-0.8,0.1-1,0.4c-0.2,0.3-0.3,0.7-0.2,1.4l0.8,3.6
			l-1.1,0l-0.9-4c-0.1-0.4-0.2-0.7-0.4-0.9c-0.2-0.3-0.6-0.4-1-0.4c-0.4,0-0.7,0.2-1,0.5c-0.3,0.3-0.3,0.9-0.1,1.7l0.7,3.3l-1.1,0
			L160.3,216z"/>
		<path d="M170,213.7l1.1,0l0.3,1.2l-1.1,0L170,213.7z M170.5,216.1l1.1,0l1.4,6.1l-1.1,0L170.5,216.1z"/>
		<path d="M173.2,216l1,0l0.2,0.9c0.2-0.4,0.5-0.6,0.8-0.8c0.3-0.2,0.7-0.2,1.1-0.2c0.9,0,1.6,0.3,2,0.9c0.2,0.3,0.4,0.8,0.6,1.4
			l0.9,4l-1.1,0l-0.9-3.9c-0.1-0.4-0.2-0.7-0.4-0.9c-0.3-0.4-0.7-0.6-1.2-0.6c-0.3,0-0.5,0-0.6,0.1c-0.3,0.1-0.5,0.3-0.7,0.5
			c-0.1,0.2-0.2,0.4-0.2,0.6c0,0.2,0,0.5,0.1,0.9l0.7,3.2l-1.1,0L173.2,216z"/>
		<path class="st14" d="M185.6,213.6c-0.4,1.2-0.6,2-0.6,2.6c-0.1,0.8,0,1.8,0.2,2.9c0.2,1.1,0.6,2.1,1.2,3.1
			c0.3,0.6,0.9,1.4,1.7,2.5l-0.7,0c-0.8-0.9-1.3-1.4-1.4-1.7c-0.2-0.2-0.4-0.6-0.7-1c-0.3-0.6-0.6-1.2-0.9-1.8
			c-0.1-0.3-0.2-0.7-0.3-1c-0.3-1.1-0.3-2.2-0.1-3c0.1-0.6,0.4-1.4,0.9-2.5L185.6,213.6z"/>
		<path class="st14" d="M188.1,217.4c-0.4-0.3-0.6-0.7-0.7-1.2c-0.1-0.6,0-1.1,0.3-1.6c0.4-0.4,1-0.7,1.8-0.7c0.8,0,1.5,0.2,2.1,0.6
			c0.6,0.4,0.9,0.9,1,1.5c0.1,0.5,0.1,0.9-0.1,1.3c-0.1,0.2-0.3,0.4-0.6,0.5c0.4,0.2,0.7,0.3,1,0.5c0.5,0.4,0.8,0.9,0.9,1.5
			c0.2,0.7,0,1.3-0.3,1.8c-0.4,0.5-1,0.8-2,0.8c-0.8,0-1.6-0.2-2.2-0.7c-0.7-0.4-1.1-1.1-1.3-1.9c-0.1-0.5-0.1-0.9,0.1-1.3
			c0.2-0.4,0.5-0.6,0.9-0.8C188.5,217.7,188.3,217.5,188.1,217.4z M191.2,217c0.2-0.3,0.3-0.6,0.2-0.9c-0.1-0.3-0.3-0.6-0.6-0.8
			c-0.3-0.3-0.7-0.4-1.2-0.4c-0.5,0-0.9,0.1-1,0.4c-0.2,0.3-0.2,0.6-0.1,0.9c0.1,0.4,0.3,0.7,0.6,0.9c0.3,0.2,0.7,0.3,1.1,0.3
			C190.7,217.4,191,217.3,191.2,217z M192.3,221.1c0.3-0.3,0.3-0.6,0.2-1.2c-0.1-0.5-0.4-0.9-0.8-1.2c-0.4-0.3-0.9-0.4-1.4-0.4
			c-0.5,0-0.9,0.1-1.2,0.4c-0.3,0.3-0.3,0.7-0.2,1.2c0.1,0.4,0.3,0.8,0.7,1.1c0.4,0.3,0.9,0.5,1.5,0.5
			C191.7,221.5,192.1,221.4,192.3,221.1z"/>
		<path class="st14" d="M195.5,220.9l1.2,0l0.3,1.3l-1.2,0L195.5,220.9z"/>
		<path class="st14" d="M199,221.6c-0.6-0.5-0.9-1.2-1.1-2l1.1,0c0.2,0.5,0.4,0.9,0.6,1.2c0.4,0.4,0.9,0.7,1.6,0.6
			c0.6,0,1-0.1,1.3-0.4c0.3-0.3,0.4-0.7,0.3-1.1c-0.1-0.6-0.4-1-0.8-1.2c-0.4-0.2-0.9-0.3-1.6-0.3c-0.1,0-0.1,0-0.2,0
			c-0.1,0-0.1,0-0.2,0l-0.2-0.9c0.1,0,0.2,0,0.3,0c0.1,0,0.2,0,0.2,0c0.4,0,0.7-0.1,0.9-0.2c0.4-0.2,0.5-0.6,0.4-1.2
			c-0.1-0.4-0.3-0.7-0.7-1c-0.4-0.2-0.7-0.3-1.1-0.3c-0.7,0-1.2,0.2-1.3,0.7c-0.1,0.3-0.1,0.6,0,1.1l-1.1,0c-0.1-0.6-0.1-1.1,0-1.6
			c0.3-0.8,1-1.2,2-1.2c0.9,0,1.6,0.2,2.1,0.6c0.6,0.4,0.9,0.9,1.1,1.6c0.1,0.5,0.1,0.9-0.2,1.2c-0.1,0.2-0.3,0.4-0.6,0.5
			c0.5,0.1,0.9,0.3,1.2,0.7s0.5,0.8,0.7,1.2c0.2,0.8,0,1.4-0.4,1.9c-0.4,0.5-1.1,0.7-2.1,0.7C200.3,222.4,199.5,222.1,199,221.6z"/>
		<path class="st14" d="M207.7,216l1.1,0l0.2,0.9c0.2-0.3,0.4-0.5,0.5-0.7c0.3-0.2,0.7-0.4,1.1-0.4c0.5,0,0.9,0.1,1.3,0.4
			c0.2,0.1,0.4,0.3,0.6,0.6c0.2-0.3,0.4-0.6,0.7-0.7c0.3-0.2,0.6-0.2,1-0.2c0.9,0,1.5,0.3,1.9,0.9c0.2,0.3,0.4,0.8,0.5,1.3l0.9,4.1
			l-1.1,0l-0.9-4.3c-0.1-0.4-0.3-0.7-0.5-0.8c-0.2-0.2-0.5-0.2-0.8-0.2c-0.4,0-0.8,0.1-1,0.4c-0.2,0.3-0.3,0.7-0.2,1.4l0.8,3.6
			l-1.1,0l-0.9-4c-0.1-0.4-0.2-0.7-0.4-0.9c-0.2-0.3-0.6-0.4-1-0.4c-0.4,0-0.7,0.2-1,0.5c-0.3,0.3-0.3,0.9-0.1,1.7l0.7,3.3l-1.1,0
			L207.7,216z"/>
		<path class="st14" d="M217.4,213.7l1.1,0l0.3,1.2l-1.1,0L217.4,213.7z M217.9,216l1.1,0l1.4,6.1l-1.1,0L217.9,216z"/>
		<path class="st14" d="M222.1,224.6c0.4-1.2,0.6-2.1,0.6-2.6c0.1-0.8,0-1.8-0.2-2.9c-0.2-1.1-0.6-2.1-1.2-3.1
			c-0.3-0.6-0.9-1.4-1.7-2.5l0.7,0c0.8,0.9,1.3,1.5,1.5,1.8c0.2,0.2,0.4,0.5,0.6,0.9c0.3,0.5,0.5,1,0.7,1.4c0.2,0.5,0.3,0.9,0.4,1.4
			c0.3,1.1,0.3,2.2,0.1,3c-0.1,0.6-0.4,1.4-0.9,2.5L222.1,224.6z"/>
	</g>
	<g>
		<ellipse transform="matrix(0.8423 -0.539 0.539 0.8423 -46.0027 231.8579)" class="st12" cx="373.3" cy="194.6" rx="3" ry="3.3"/>
	</g>
	<g>
		<path class="st12" d="M154.1,245.9l-4.4,16.3c-0.2,0.8,0.6,1.6,1.4,1.3l5.4-2.1c0.2-0.1,0.5-0.1,0.8,0l5.1,1.9
			c0.9,0.3,1.8-0.6,1.3-1.5l-7.7-16.1C155.7,244.8,154.4,244.9,154.1,245.9z"/>
	</g>
	<g>
		<g>
			<path class="st6" d="M168.1,145.7c2,0,3.7,1.4,4,3.4c0.4,2.4-1.5,4.6-4,4.6h-32.3c-2,0-3.8-1.5-4-3.6c-0.3-2.4,1.6-4.5,4-4.5
				H168.1 M168.1,144.7h-32.3c-1.4,0-2.8,0.6-3.7,1.7c-1,1.1-1.4,2.5-1.2,3.9c0.3,2.5,2.4,4.4,5,4.4h32.3c1.5,0,2.9-0.6,3.8-1.8
				c1-1.1,1.4-2.6,1.1-4C172.7,146.5,170.6,144.7,168.1,144.7L168.1,144.7z"/>
		</g>
	</g>
	<g>
		<g>
			<path class="st6" d="M199.8,145.7c2,0,3.7,1.4,4,3.4c0.4,2.4-1.5,4.6-4,4.6h-17.3c-2,0-3.8-1.5-4-3.6c-0.3-2.4,1.6-4.5,4-4.5
				H199.8 M199.8,144.7h-17.3c-1.4,0-2.8,0.6-3.7,1.7s-1.4,2.5-1.2,3.9c0.3,2.5,2.4,4.4,5,4.4h17.3c1.5,0,2.9-0.6,3.8-1.8
				c1-1.1,1.4-2.6,1.1-4C204.3,146.5,202.3,144.7,199.8,144.7L199.8,144.7z"/>
		</g>
	</g>
	<g>
		<g>
			<circle class="st15" cx="136" cy="163.2" r="2"/>
		</g>
	</g>
	<g>
		<g>
			<circle class="st15" cx="143.9" cy="163.2" r="2"/>
		</g>
	</g>
	<g>
		<g>
			<circle class="st15" cx="151.9" cy="163.2" r="2"/>
		</g>
	</g>
	<g>
		<g>
			<circle class="st15" cx="159.9" cy="163.2" r="2"/>
		</g>
	</g>
	<g>
		<g>
			<rect x="134.9" y="174" class="st6" width="77.2" height="1"/>
		</g>
	</g>
	<g>
		<g>
			<rect x="136" y="179.9" class="st6" width="77.2" height="1"/>
		</g>
	</g>
	<g>
		<g>
			<path class="st16" d="M236.5,138.6h37.6c3.9,0,7.2,2.9,7.6,6.8l4.1,37.2c0.5,4.5-3,8.4-7.5,8.5l-38.5,0.8c-4.1,0.1-7.5-3-7.8-7
				l-3.2-38C228.5,142.4,232,138.6,236.5,138.6z"/>
		</g>
	</g>
	<g>
		<path class="st4" d="M258.4,184.1c-9.4,0-17.7-7.8-18.7-17.9c-0.5-5.2,1-10.4,4.2-14.1c3-3.5,7.1-5.6,11.7-5.8
			c9.8-0.5,18.6,7.5,19.6,17.8c0.5,5.2-1,10.4-4.2,14.1c-3,3.5-7.1,5.6-11.7,5.8C259,184.1,258.7,184.1,258.4,184.1z M256.6,149.3
			c-0.3,0-0.5,0-0.8,0c-3.7,0.2-7.1,1.9-9.6,4.8c-2.7,3.2-4,7.5-3.5,11.9l0,0c0.9,8.8,8.3,15.6,16.4,15.2c3.7-0.2,7.1-1.9,9.6-4.8
			c2.7-3.2,4-7.5,3.5-11.9C271.4,155.9,264.5,149.3,256.6,149.3z"/>
	</g>
	<g>
		<path class="st17" d="M610.9,399.6H417.4c-0.7-2.8-11.3-23.8-13.3-28c-2-4.3-20.9-33.2-25.5-39.3c-4.6-6.2-20.3-21.9-23.5-25.1
			c-1.7-1.7-9.2-11-15.8-19.2c-0.4-0.5-0.8-1-1.2-1.6c-5-6.4-9.3-11.8-9.6-12.3c-0.6-1.1-1.2-2.9-0.2-6c0.1-0.4,0.3-0.9,0.5-1.4
			c0.1-0.3,0.2-0.5,0.4-0.7c2-3.2,6.3-3.2,9.4-2.3c3.3,1,22.3,11.4,27.7,14c5.3,2.5,37.2,17.4,40.6,17.1
			c3.3-0.2,17.7-23.3,17.7-23.3s0,0-4.9-2.8c-5-2.8-6.7-5.6-7-7.9c-0.3-2.2-5.5-33.5-7.5-47c-2-13.5,14.5-15.4,14.5-15.4
			s-4.5-21.2-5.7-29.5c-1.2-8.3-3.8-23.7-4.2-28.3c-0.4-4.6-0.4-21.1-0.8-27c-0.3-5.9-2.5-13.4,5.7-14.8c0.1,0,0.2,0,0.3,0
			c1.5-0.2,2.8-0.1,3.9,0.3c3.4,1.1,5.2,4.4,5.5,5.6c0.2,0.7,1.2,5.1,2.5,10.3c0.2,0.7,0.3,1.4,0.5,2.1c1.5,6.4,3.2,13.5,3.7,16.4
			c1.1,5.7,20.6,53.8,20.6,53.8c13.5,1,24.8,13.4,24.8,13.4c21.2-2.1,33.8,20.4,33.8,20.4c23.9,6.7,29.5,19,33.7,25.2
			c2.8,4.1,31.3,70.2,50.2,114.3C603.8,382.9,610.9,399.6,610.9,399.6z"/>
	</g>
	<g>
		<path class="st18" d="M429.4,250.8c0,5.2-0.9,16.6-4.9,20.5c0,0,0,0-4.9-2.8c-5-2.8-6.7-5.6-7-7.9c-0.3-2.2-5.5-33.5-7.5-47
			c-2-13.5,14.5-15.4,14.5-15.4S429.4,245.6,429.4,250.8z"/>
	</g>
	<g>
		<path class="st19" d="M610.9,399.6h-97.2l80.4-39.2C603.8,382.9,610.9,399.6,610.9,399.6z"/>
	</g>
	<g>
		<g>
			<path class="st20" d="M427.2,116.9c-1.8,1.1-3.5,1.7-5.3,1.7c-0.3,0-0.7,0-1-0.1c-3-0.4-4.9-2.5-5.6-3.3
				c-1.9-2.4-3.4-11.2-1.7-14.9c0.3-0.6,0.7-1.2,1.2-1.6c1.5-0.2,2.8-0.1,3.9,0.3c-1.4,0.3-2.7,0.9-3.3,2.1c-1.4,3,0,10.9,1.5,12.9
				c0.5,0.7,2,2.3,4.2,2.6c1.7,0.2,3.6-0.4,5.5-1.7C426.8,115.5,427,116.2,427.2,116.9z"/>
		</g>
	</g>
	<g>
		<path class="st18" d="M468.6,225.9c-0.4,0-0.7-0.2-0.9-0.6L451.2,189c-0.2-0.5,0-1.1,0.5-1.3c0.5-0.2,1.1,0,1.3,0.5l16.5,36.3
			c0.2,0.5,0,1.1-0.5,1.3C468.9,225.8,468.8,225.9,468.6,225.9z"/>
	</g>
	<g>
		<path class="st18" d="M492.2,226.7c-0.3,0-0.7-0.2-0.8-0.5l-15.1-23.6c-0.3-0.5-0.2-1.1,0.3-1.4c0.5-0.3,1.1-0.2,1.4,0.3
			l15.1,23.6c0.3,0.5,0.2,1.1-0.3,1.4C492.6,226.7,492.4,226.7,492.2,226.7z"/>
	</g>
	<g>
		<path class="st18" d="M516.5,234c-0.3,0-0.7-0.2-0.9-0.5l-5.9-10.1c-0.3-0.5-0.1-1.1,0.4-1.4c0.5-0.3,1.1-0.1,1.4,0.4l5.9,10.1
			c0.3,0.5,0.1,1.1-0.4,1.4C516.8,234,516.6,234,516.5,234z"/>
	</g>
	<g>
		<g>
			<path class="st20" d="M344.5,280.9c-0.2,2.5-3.4,5.4-5.2,6.9c-0.4-0.5-0.8-1-1.2-1.6c2-1.7,4.3-4,4.4-5.5
				c0.1-1.2,0.4-7.3-6.1-11.2c-3.4-2-6.3-2-8.1-1.6c0.1-0.4,0.3-0.9,0.5-1.4c0.1-0.3,0.2-0.5,0.4-0.7c2.1-0.2,5,0.2,8.2,2
				C343.2,271.3,344.9,276.9,344.5,280.9z"/>
		</g>
	</g>
	<g>
		<path class="st21" d="M376.5,131.4c-3.4-2.3-7.5-3-11.6-2.1c-6.2,1.3-11.7,5.2-12.7,11.8c-0.7,4.5,1.1,8.8,3.3,12.6
			c2.4,4,5.1,7.9,7.6,11.9c2.1,3.3,4.3,6.6,6.5,10c0.7,1,1.3,2,2,3.1c2-3.8,3.8-7.7,5.6-11.7c1.5-3.3,2.9-6.6,4.2-10
			c1.2-3.1,2.5-6.5,2.9-9.8C385.1,141.2,381.2,134.6,376.5,131.4z M368.5,154.7c-5.1,0-9.3-4.3-9.3-9.5s4.2-9.5,9.3-9.5
			c5.1,0,9.3,4.3,9.3,9.5S373.6,154.7,368.5,154.7z"/>
	</g>
	<g>
		<path class="st0" d="M301.9,59.7H293c-1.6,0-3.1-1-3.7-2.5l-0.1-0.3c-0.5-1.2-0.3-2.6,0.4-3.7s2-1.7,3.3-1.7h8.9
			c1.7,0,3.2,1.1,3.7,2.7l0.1,0.3c0.4,1.2,0.2,2.5-0.5,3.6C304.3,59.1,303.2,59.7,301.9,59.7z"/>
	</g>
	<g>
		<path class="st0" d="M144.4,59.7h-4.9c-1.6,0-3.1-1-3.7-2.5l-0.1-0.3c-0.5-1.2-0.3-2.6,0.4-3.7s2-1.7,3.3-1.7h4.9
			c1.7,0,3.2,1.1,3.7,2.7l0.1,0.3c0.4,1.2,0.2,2.5-0.5,3.6C146.9,59.1,145.7,59.7,144.4,59.7z"/>
	</g>
	<g>
		<path class="st0" d="M454,59.7h-4.9c-1.6,0-3.1-1-3.7-2.5l-0.1-0.3c-0.5-1.2-0.3-2.6,0.4-3.7s2-1.7,3.3-1.7h4.9
			c1.7,0,3.2,1.1,3.7,2.7l0.1,0.3c0.4,1.2,0.2,2.5-0.5,3.6C456.5,59.1,455.3,59.7,454,59.7z"/>
	</g>
</g>
</svg>
