<?xml version="1.0" encoding="utf-8"?>
<!-- Generator: Adobe Illustrator 24.1.2, SVG Export Plug-In . SVG Version: 6.00 Build 0)  -->
<svg version="1.1" id="sv" xmlns="http://www.w3.org/2000/svg" xmlns:xlink="http://www.w3.org/1999/xlink" x="0px" y="0px"
	 viewBox="0 0 601.6 548.6" style="enable-background:new 0 0 601.6 548.6;" xml:space="preserve">
<style type="text/css">
	.st0{fill:#697CCC;}
	.st1{fill:#DCE4FF;}
	.st2{fill:#319F5C;}
	.st3{fill:#378758;}
	.st4{fill:#329E5D;}
	.st5{fill:#378657;}
	.st6{fill:#3274CB;}
	.st7{fill:#6596D8;}
	.st8{fill:none;stroke:#8E2919;stroke-miterlimit:10;}
	.st9{fill:#FECE26;}
	.st10{fill:#1A1A1A;}
	.st11{fill:none;stroke:#000000;stroke-miterlimit:10;}
	.st12{fill:#FACD29;}
	.st13{fill:#FFFFFF;}
	.st14{fill:#FECA55;}
	.st15{fill:#1551FC;}
	.st16{fill:#BCD7FD;}
	.st17{fill:#A3685D;stroke:#6B423E;stroke-width:1.5;stroke-miterlimit:10;}
	.st18{fill:#1B2944;}
	.st19{fill:#EF9200;stroke:#F38518;stroke-width:1.5;stroke-miterlimit:10;}
	.st20{fill:#FDB100;stroke:#F38518;stroke-width:1.5;stroke-miterlimit:10;}
	.st21{fill:#8989DC;stroke:#8078CC;stroke-width:1.5;stroke-miterlimit:10;}
	.st22{fill:#ADA8E5;stroke:#8078CC;stroke-width:1.5;stroke-miterlimit:10;}
	.st23{fill:#ADA8E5;stroke:#8078CC;stroke-width:1.5;stroke-linecap:round;stroke-miterlimit:10;}
	.st24{fill:#A0635B;}
	.st25{fill:#A3685D;stroke:#6B423E;stroke-width:1.5;stroke-linecap:round;stroke-linejoin:round;stroke-miterlimit:10;}
	.st26{fill:#543332;}
	.st27{fill:#172540;}
</style>
<g>
	<g>
		<path class="st0" d="M295.7,139.3c0,0-2.3-1.9-5.7-4.7c-0.1-0.1-0.3-0.2-0.4-0.3c-7-5.8-18.1-15.1-22.1-18.7
			c-0.1-0.1-0.1-0.1-0.2-0.2c-0.5-0.5-0.9-0.9-1.1-1.1c-2.5-2.7-2-6-2-6l-0.9-0.8c-0.1-0.1-0.2-0.3-0.1-0.4c0,0,0-0.1,0.1-0.1
			c0.1-0.2,0.4-0.2,0.6-0.1l0.9,0.7c0,0,0.6-0.2,2.8-0.1c1.5,0.1,3.4,1.3,4.4,2c0.2,0.1,0.3,0.2,0.4,0.3c0.2,0.1,0.3,0.2,0.3,0.2
			l21.6,18.2l0.4,0.3l3.5,3c0.1,0.1,0.1,0.1,0.2,0.1c0.2,0.1,0.4,0,0.6-0.2c0.2-0.2,0.2-0.6,0-0.8l-6.1-5.5
			c-0.2-0.2-0.2-0.4-0.2-0.6c0-0.1,0.1-0.2,0.2-0.3c0.2-0.2,0.5-0.2,0.8,0l6.8,6.2c0.4,0.4,0.4,1,0,1.4l-0.9,0.9l1.2,0.9
			C300.6,139.7,295.7,139.3,295.7,139.3z"/>
		<path class="st1" d="M290.1,134.6c-0.1-0.1-0.3-0.2-0.4-0.3l4.6-6l0.4,0.3L290.1,134.6z"/>
		<path class="st1" d="M267.8,115.8c-0.1-0.1-0.1-0.1-0.2-0.2c-0.1-0.1-0.1-0.1-0.2-0.2l0,0l4.5-5.9c0.2,0.1,0.3,0.2,0.4,0.3
			L267.8,115.8z"/>
	</g>
	<g>
		<path class="st2" d="M331.7,458.8c0,0-8.9-11.7-9-13.4c-0.2-1.7,1.4-3.8,1.4-3.8l6.2,4.7l-5.9-9.2l0.7-8.1l9.4,7.9l-4.4-11.4
			l8.3-6.2l4.4,7.4l-2.2-9.2l9.8-3.6l2.5,4.2l1.3-6.2l11-0.7l-10.7,11.1l-20.1,28.6L331.7,458.8"/>
		<path class="st3" d="M332.5,460.8v-2.9l14.8-4.5l-7.4-2.6l10.4,0.5l4.3-4.9l-8.4-1.9h9.9l2.5-8.3l-7.9-5.2l9.5,0.6l1.4-6.2l-3.6-3
			h5.1l2.3-11.3c0,0-30.3,20.1-33.5,44.9l-0.6,4.8H332.5z"/>
		<polygon class="st3" points="315.1,454.1 321.8,443.8 316,385.7 312,380 305.5,388.1 309.1,376 298,361.4 291.8,365.9 
			292.7,356.3 273.9,345 291.8,373 301.2,393.9 		"/>
		<path class="st4" d="M273.9,345c0,0,42.2,47.1,42.2,116.5h-2l-0.2-6.3L297.5,434l-7.2-19.3l11,1.3l-10.9-5.2l-3.3-19l10.9-0.4
			l-12.5-8.5l-3.1-13.5l5.4-1.4l-6.5-2.8L273.9,345z"/>
		<path class="st5" d="M307.4,460.1c0,0,8.9-11.7,9-13.4c0.2-1.7-1.4-3.8-1.4-3.8l-6.2,4.7l5.9-9.2l-0.7-8.1l-9.4,7.9l4.4-11.4
			l-8.3-6.2l-4.4,7.4l2.2-9.2l-9.8-3.6l-2.5,4.2l-1.3-6.2l-11-0.7l10.7,11.1l20.1,28.6L307.4,460.1"/>
		<path class="st5" d="M320.8,452.5c0,0,15-19.8,15.7-22.4h-7.9l11.1-8.6l5.1-20l-13.6,3.4l14.6-14.2l-1-21l-9.5,5.3l9.5-12.2
			l-2.4-20.2l-6,0.7l4.8-6.4l-1.6-13.1l-2.5-1.1l2.2-3.4l-2.9-10.8l-15.7,133.7V452.5"/>
		<path class="st2" d="M306.6,462.1v-2.9l-14.8-4.5l7.4-2.6l-10.4,0.5l-4.3-4.9l8.4-1.9h-9.9l-2.5-8.3l7.9-5.2l-9.5,0.6l-1.4-6.2
			l3.6-3h-5.1l-2.3-11.3c0,0,30.3,20.1,33.5,44.9l0.6,4.8H306.6z"/>
		<path class="st4" d="M319.9,450.9c0,0-9.2-18.4-7.7-27.3l7.7,4.5l-7.9-8.9v-22.1l9.8,7.2l-9.8-11.4l4.9-25.1l10.4,6.4l-7.6-15.9
			l5.2-17.1l6.2,1.5l-4-6.4l5-13.9h2.2l-1.5-4.5l3.7-7.9l-13.9,139.9l-2.7,12.2h-2.2L319.9,450.9z"/>
		<polygon class="st6" points="296.3,478.5 302.7,517.1 334.7,517.1 340.4,478.5 		"/>
		<path class="st7" d="M337.4,481.7h-39c-4.1,0-7.5-3.3-7.5-7.5v-6.8c0-4.1,3.3-7.5,7.5-7.5h39c4.1,0,7.5,3.3,7.5,7.5v6.8
			C344.9,478.3,341.5,481.7,337.4,481.7z"/>
	</g>
	<g>
		<g>
			<path d="M157.1,86.4h-11.8c-2.6,0-4.8-2.2-4.8-4.8v-7.6c0-2.6,2.2-4.8,4.8-4.8h11.8c2.6,0,4.8,2.1,4.8,4.8v7.6
				C161.9,84.3,159.8,86.4,157.1,86.4z M145.4,71.3c-1.5,0-2.8,1.3-2.8,2.8v7.6c0,1.5,1.3,2.8,2.8,2.8h11.8c1.5,0,2.8-1.3,2.8-2.8
				v-7.6c0-1.5-1.3-2.8-2.8-2.8H145.4z"/>
		</g>
		<path class="st8" d="M507.6,186.4"/>
		<path class="st9" d="M400.3,73.1h-48.1c-6.4,0-11.6-5.2-11.6-11.6v-27c0-6.4,5.2-11.6,11.6-11.6h48.1c6.4,0,11.6,5.2,11.6,11.6v27
			C412,67.9,406.8,73.1,400.3,73.1z"/>
		<g>
			<path d="M395.1,32.4H347c-7,0-12.6,5.7-12.6,12.6v27c0,7,5.7,12.6,12.6,12.6h33.9v-2H347c-5.9,0-10.6-4.8-10.6-10.6v-27
				c0-5.9,4.8-10.6,10.6-10.6h48.1c5.9,0,10.6,4.8,10.6,10.6v19.6h2V45.1C407.7,38.1,402.1,32.4,395.1,32.4z"/>
		</g>
		<g>
			<path d="M311.6,116.9h-16.3v2h16.3c10.8,0,19.5,8.7,19.5,19.5v18.5c0,10.8-8.7,19.5-19.5,19.5H229c-10.8,0-19.5-8.7-19.5-19.5
				v-18.5c0-10.8,8.8-19.5,19.5-19.5h25.5v-2H229c-11.8,0-21.5,9.6-21.5,21.5v18.5c0,11.9,9.7,21.5,21.5,21.5h82.6
				c11.9,0,21.5-9.6,21.5-21.5v-18.5C333.1,126.5,323.5,116.9,311.6,116.9z"/>
		</g>
		<rect x="238.6" y="138.1" class="st10" width="36.7" height="2.4"/>
		<rect x="285.2" y="138.6" class="st10" width="15.5" height="2.4"/>
		<rect x="238.6" y="155.4" class="st10" width="36.7" height="2.4"/>
		<line class="st11" x1="254.6" y1="118.9" x2="254.6" y2="116.9"/>
		<line class="st11" x1="295.3" y1="116.9" x2="295.3" y2="118.9"/>
		<rect x="216.7" y="207.8" class="st9" width="24.7" height="24.7"/>
		<g>
			<path d="M381,273.7h-27.2v-27.2H381V273.7z M355.8,271.7H379v-23.2h-23.2V271.7z"/>
		</g>
		<g>
			<path d="M234.7,228.3h-27.2v-27.2h27.2V228.3z M209.5,226.3h23.2v-23.2h-23.2V226.3z"/>
		</g>
		<g>
			<path d="M181.3,125.2c-3.8,0-6.4-0.7-6.6-0.7l0.5-1.9c0.1,0,11.6,2.9,21.5-3.9c7.8-5.3,12.6-15.1,14.3-29l2,0.2
				c-1.7,14.5-6.9,24.8-15.2,30.5C192,124.2,185.8,125.2,181.3,125.2z"/>
		</g>
		<g>
			<path d="M90.9,80.8c0-0.3-2.6-28.2,24.7-34.6c2.6-0.6,5.2-1.2,7.9-0.9c19.6,1.8,25.8,14.7,27.5,25.3l-2,0.3
				c-2.4-14.3-11-22.2-25.8-23.6c-2.4-0.2-4.8,0.3-7.3,0.9c-25.5,6-23.2,31.4-23.1,32.4L90.9,80.8z"/>
		</g>
		<g>
			<path d="M91.8,91.9c-3.6,0-6.5-2.9-6.5-6.5s2.9-6.5,6.5-6.5c3.6,0,6.5,2.9,6.5,6.5S95.4,91.9,91.8,91.9z M91.8,80.9
				c-2.5,0-4.5,2-4.5,4.5s2,4.5,4.5,4.5s4.5-2,4.5-4.5S94.3,80.9,91.8,80.9z"/>
		</g>
		<g>
			<path d="M213,91.7c-3.9,0-7-3.1-7-7s3.1-7,7-7s7,3.1,7,7S216.8,91.7,213,91.7z M213,79.7c-2.8,0-5,2.2-5,5c0,2.8,2.2,5,5,5
				c2.8,0,5-2.2,5-5C218,81.9,215.7,79.7,213,79.7z"/>
		</g>
		<g>
			<path d="M426.9,325.1H117.1c-12.7,0-23-10.3-23-23V118.4c0-12.7,10.3-23,23-23h309.7c12.7,0,23,10.3,23,23v183.8
				C449.8,314.8,439.5,325.1,426.9,325.1z M117.1,97.4c-11.6,0-21,9.4-21,21v183.8c0,11.6,9.4,21,21,21h309.7c11.6,0,21-9.4,21-21
				V118.4c0-11.6-9.4-21-21-21H117.1z"/>
		</g>
		<g>
			<g>
				<polygon class="st12" points="151.5,80.7 130.9,122.5 139.9,145.3 164.9,145.3 173.3,121.3 				"/>
			</g>
			<g>
				<path d="M165.4,146.1h-26l-9.4-23.6L151.5,79l22.7,42.2L165.4,146.1z M140.5,144.6h23.9l8.1-23.2l-21-39l-19.8,40.2L140.5,144.6
					z"/>
			</g>
		</g>
		<g>
			<circle class="st13" cx="152.1" cy="119.6" r="6.6"/>
			<path d="M152.1,126.9c-4,0-7.3-3.3-7.3-7.3s3.3-7.3,7.3-7.3s7.3,3.3,7.3,7.3S156.1,126.9,152.1,126.9z M152.1,113.8
				c-3.2,0-5.8,2.6-5.8,5.8s2.6,5.8,5.8,5.8s5.8-2.6,5.8-5.8S155.3,113.8,152.1,113.8z"/>
		</g>
		<path class="st10" d="M161.7,157.8h-19.6c-3,0-5.4-2.4-5.4-5.4v0c0-3,2.4-5.4,5.4-5.4h19.6c3,0,5.4,2.4,5.4,5.4v0
			C167.1,155.4,164.7,157.8,161.7,157.8z"/>
		<g>
			<path d="M168.5,299.5H54.8c-10.3,0-18.7-8.4-18.7-18.7v-63.2c0-10.3,8.4-18.7,18.7-18.7h113.7c10.3,0,18.7,8.4,18.7,18.7v63.2
				C187.1,291.1,178.8,299.5,168.5,299.5z M54.8,200.9c-9.2,0-16.7,7.5-16.7,16.7v63.2c0,9.2,7.5,16.7,16.7,16.7h113.7
				c9.2,0,16.7-7.5,16.7-16.7v-63.2c0-9.2-7.5-16.7-16.7-16.7H54.8z"/>
		</g>
		<path class="st10" d="M186.1,217.6v7.4h-149v-7.4c0-9.8,7.9-17.7,17.7-17.7h113.7C178.2,199.9,186.1,207.8,186.1,217.6z"/>
		<circle class="st13" cx="54.4" cy="213.6" r="3.3"/>
		<circle class="st13" cx="64.5" cy="213.6" r="3.3"/>
		<circle class="st13" cx="74.3" cy="213.6" r="3.3"/>
		<path class="st14" d="M167.4,289.4H53.9c-4.7,0-8.5-3.8-8.5-8.5v-42.9c0-4.7,3.8-8.5,8.5-8.5h113.5c4.7,0,8.5,3.8,8.5,8.5v42.9
			C175.9,285.6,172.1,289.4,167.4,289.4z"/>
		<rect x="126.4" y="237.4" class="st13" width="39.7" height="43.4"/>
		<rect x="53.9" y="268.5" class="st13" width="44.5" height="3.3"/>
		<rect x="53.9" y="274.7" class="st13" width="44.5" height="3.3"/>
		<path class="st15" d="M134,268.9c0.4,0,0.8,0.3,0.8,0.8c0,0.4-0.3,0.8-0.8,0.8c-0.4,0-0.8-0.3-0.8-0.8
			C133.3,269.2,133.6,268.9,134,268.9z M150.6,258.3c0.4,0,0.8,0.3,0.8,0.8c0,0.4-0.3,0.8-0.8,0.8c-0.4,0-0.8-0.3-0.8-0.8
			C149.9,258.7,150.2,258.3,150.6,258.3z M141.6,258.3c0.4,0,0.8,0.3,0.8,0.8c0,0.4-0.3,0.8-0.8,0.8s-0.8-0.3-0.8-0.8
			C140.8,258.7,141.1,258.3,141.6,258.3z M158.2,247.8c0.4,0,0.8,0.3,0.8,0.8s-0.3,0.8-0.8,0.8c-0.4,0-0.8-0.3-0.8-0.8
			S157.7,247.8,158.2,247.8z M158.2,246.3c-1.2,0-2.3,1-2.3,2.3c0,0.5,0.2,0.9,0.4,1.3l-5.1,7.1c-0.2-0.1-0.4-0.1-0.6-0.1
			c-1,0-1.8,0.6-2.1,1.5h-4.8c-0.3-0.9-1.1-1.5-2.1-1.5c-1.2,0-2.3,1-2.3,2.3c0,0.5,0.2,0.9,0.4,1.3l-5.1,7.1
			c-0.2-0.1-0.4-0.1-0.6-0.1c-1.2,0-2.3,1-2.3,2.3c0,1.2,1,2.3,2.3,2.3c1.2,0,2.3-1,2.3-2.3c0-0.5-0.2-0.9-0.4-1.3l5.1-7.1
			c0.2,0.1,0.4,0.1,0.6,0.1c1,0,1.8-0.6,2.1-1.5h4.8c0.3,0.9,1.2,1.5,2.1,1.5c1.2,0,2.3-1,2.3-2.3c0-0.5-0.2-0.9-0.4-1.3l5.1-7.1
			c0.2,0.1,0.4,0.1,0.6,0.1c1.2,0,2.3-1,2.3-2.3S159.4,246.3,158.2,246.3L158.2,246.3z"/>
		<rect x="252.6" y="226.3" class="st16" width="65.2" height="53.3"/>
		<rect x="261.3" y="236.4" class="st13" width="30.2" height="4.2"/>
		<rect x="261.3" y="243.7" class="st13" width="30.2" height="4.2"/>
		<rect x="261.3" y="251" class="st13" width="30.2" height="2.1"/>
		<rect x="261.3" y="262.6" class="st13" width="30.2" height="2.1"/>
		<rect x="296.8" y="235.9" class="st13" width="16.5" height="12"/>
	</g>
	<path class="st17" d="M273.4,110c0,0-2.3,2.1-1.4,12.2c1,10.3,0.8,8.8,0.8,8.8s-2.6,2.7-1.5,5.3s12,13.4,12,13.4s29.2,77,77.9,76
		l6.8-37.2c0,0-55.6-15.3-68.4-43.9c0,0,1.9-14.3-1.2-16.8c-3.1-2.5-14.9-15.6-15.2-12s7.1,12,7.5,13.3c0.3,1.4-0.5,2.4-4.6,1.4
		c-4.1-1-7.9-6.4-7.9-8.6s0-11.6-0.7-11.9C276.8,109.7,276.1,108.6,273.4,110z"/>
	<path class="st17" d="M497.7,423.5c0,0,43.7-5.2,52.3-6.2l-13.7-18.9c0,0-31.4-9.5-38.1-6.1L497.7,423.5z"/>
	<path class="st18" d="M534.8,397.3c0,0,2.2-4,6.9-4.8l2.2,2.1c0,0-2.2,4.3,0.9,5.2c3.1,0.9,5.4,1.8,8.5,6.4
		c3.1,4.6,17.5,23.4,17.5,23.4s-3,3-7-0.7c-4.1-3.7-15.3-11.4-15.3-11.4L534.8,397.3z"/>
	<path class="st19" d="M508.5,381.8l-10.5,51c0,0-59.8,2.7-73.6-46s-7.9-109.2-7.9-109.2l18-0.1c0,0,13.7,42.8,17.7,55.1
		c3.9,12.3,8.2,37.4,25.7,42.3C495.3,379.6,508.5,381.8,508.5,381.8z"/>
	<path class="st17" d="M424.4,508.2c0,0-3.2-48.3-3.7-50.6c-0.5-2.3-29.9,2.3-29.9,2.3l11.1,48.3H424.4z"/>
	<path class="st18" d="M377.2,516l39.6,1.2c0,0,4.8-2.4,4.8-3.6s0.8,3.5,2.3,3.6s2.5,0,2.5,0s0.4-8-2.1-9s-22.5,0-22.5,0
		S371.3,510.5,377.2,516z"/>
	<path class="st20" d="M388.1,462.9c0,0,37.7,5.7,50.6-13.4l-16.3-81.2c0,0,4.6-74.3,1.8-90.9l-53.8,0.7c0,0-5.7,48.3-1.6,78
		C372.9,385.8,379.3,444,388.1,462.9z"/>
	<path class="st17" d="M464.9,239.5c0,0,13.3,33.9,19.8,40.3c6.6,6.4,28.7,31.9,38.9,35.1c10.2,3.2,11.9,22.8,11.9,22.8
		s-6.3,2.1-10-1.5s-9.6-10.5-11.9-10.7c-2.3-0.2-27.2-11.9-35.8-17.8c-8.6-5.9-36.3-36-40.4-51.9
		C433.3,239.8,464.9,239.5,464.9,239.5z"/>
	<path class="st21" d="M436.2,261.1c0,0,25.6-2.8,32.3-20.7c0,0-14.2-34.2-19.1-36.2c-4.9-2-20.1,5.5-20.1,5.5L436.2,261.1z"/>
	<path class="st22" d="M367.4,184.4l-11.9,53.2l18.2,2.3l-3.4,39.8h67.4l4.9-87.9C442.6,191.9,376.3,193.6,367.4,184.4z"/>
	<path class="st23" d="M403.3,236c0,0-11.4,6.3-29.6,4"/>
	<path class="st24" d="M398.2,138.4c0,0-8.3,8.4-9.6,13.6c0,0-6.4-0.9-7,0.5s2.9,4.3,3.1,5.6c0.2,1.3-6.8,22.3,7.1,23.7
		c4.4,1.7,9.3,2.8,11.4,8.3c2.1,5.5,30.2-34.8,30.2-34.8L398.2,138.4z"/>
	<path class="st25" d="M386.2,163.4c0,0,2.7,1.4,5.3-2.5"/>
	<path class="st25" d="M404.9,163.7c0,0,0.6-3.7,5.5-3.6"/>
	
		<ellipse transform="matrix(0.3364 -0.9417 0.9417 0.3364 117.1893 473.7827)" class="st26" cx="394.8" cy="153.7" rx="1.9" ry="1.4"/>
	<path class="st27" d="M399.9,144.9c0,0-6.9-6.7-1.2-13.3c0,0-7.3-9.2,2.8-16.5c10.1-7.3,17.2,4.4,17.2,4.4s16.6-5.1,20.3,10.1
		c0,0,5.8-0.2,5.8,6c0,0,8.6,0.3,8.2,9.2c0,0,7.3-4.3,12,2.7c4.6,7-0.6,13.2-0.6,13.2s7.8-1.4,9.6,7.4s-7,12.4-7,12.4
		s6.5,13.5-8.3,14.9c0,0,2.1,9.1-9.5,11.4c0,0-6.5,10.9-19.9,9.3c-13.4-1.6-17.5-13.4-17.5-13.4s-8.7,1.7-12.1-8s4.7-10.8,4.7-10.8
		s-5.2-7.3-1-14.6c0,0,12.1,6.7,13.5-6.6c0-3.5-6.3-10.9-14.4-3.7c0,0-1.9-0.1,1.2-4.6C403.8,154.6,398,152.3,399.9,144.9z"/>
</g>
</svg>
