<?xml version="1.0" encoding="utf-8"?>
<!-- Generator: Adobe Illustrator 26.2.0, SVG Export Plug-In . SVG Version: 6.00 Build 0)  -->
<svg version="1.1" id="Layer_1" xmlns="http://www.w3.org/2000/svg" xmlns:xlink="http://www.w3.org/1999/xlink" x="0px" y="0px"
	 viewBox="0 0 484 419" style="enable-background:new 0 0 484 419;" xml:space="preserve">
<style type="text/css">
	.st0{fill:#F44B4F;}
	.st1{fill:#FACA01;}
	.st2{fill:#FBDCAF;}
	.st3{fill:#476AC7;}
	.st4{fill:#FCCD25;}
	.st5{fill:#8D3B52;}
	.st6{fill:#739043;}
	.st7{fill:#49213C;}
	.st8{fill:#CDD3CC;}
	.st9{fill:#4E273F;}
	.st10{fill:#4B2A47;}
	.st11{fill:#FFA0A2;}
	.st12{fill:#F9DAAE;}
	.st13{fill:#FFFCF4;}
	.st14{fill:#EF8F94;}
	.st15{fill:#522B43;}
	.st16{fill:#FFA2A4;}
	.st17{fill:#C1656E;}
	.st18{fill:#FDDCAC;}
	.st19{fill:#FFFFFF;}
	.st20{fill:#668839;}
	.st21{fill:#DD7F85;}
	.st22{fill:none;}
	.st23{fill:#F7345C;}
</style>
<g>
	<g>
		<path d="M459.1,402.9H18.9c-1.4,0-2.5-1.1-2.5-2.5s1.1-2.5,2.5-2.5h440.3c1.4,0,2.5,1.1,2.5,2.5S460.5,402.9,459.1,402.9z"/>
	</g>
	<g>
		<path class="st0" d="M352.6,171.1l2.7-0.7c0,0,49.8,8.2,59.9,24s26.8,57.2,31.1,76.5s18.5,62.6,10.4,73
			c-8.1,10.4-32.1,18.7-53.9,15.6l1,38.8H241l-7.5-157l-30-24.7c0,0,31.7-29.1,49.8-35.8c18.1-6.7,43.1-13.4,43.1-13.4l58.8,3l0,0"
			/>
	</g>
	<g>
		<path class="st1" d="M434.1,189.3c-1.5,0-2.8-1.1-3-2.6c-10.8-88.5-92.8-82.9-158.8-78.3c-23.8,1.6-44.3,3.1-59.1,0
			c-13.5-2.8-25.7-10.1-35.3-21.1c-7.2-8.2-12.8-17.8-16.9-28.5l-0.2-0.6c-0.9-2.3-1.9-5.1-2.8-8.1c-1.2,0.1-2.4,0.2-3.6,0.3
			c-10,0.9-23.2,2.4-36,5.8c-38.9,10.4-62.7,68-63,68.5c-0.6,1.5-2.4,2.3-3.9,1.6c-1.5-0.6-2.3-2.4-1.6-3.9c1-2.5,25.2-60.9,67-72.1
			c13.3-3.6,26.8-5.1,37-6c0.9-0.1,1.8-0.2,2.6-0.2c-1.2-6.1-1.2-12.5,2.3-17.2c2-2.8,5-5,8.8-6.7c6.1-2.6,12.3-3,17.7-1
			c6.3,2.4,10.8,8.4,10.9,14.6c0,2.7-0.7,5.1-2.1,7c-1.7,2.3-4.1,3.5-6,4.3c-7.5,3.2-15.8,3.9-24,4.4c0.8,2.3,1.6,4.5,2.3,6.3
			l0.2,0.7c3.7,9.9,9.2,19.1,15.8,26.7c8.7,10,19.8,16.6,32,19.2c14,2.9,34.1,1.5,57.4-0.1c33.4-2.3,71.2-4.9,102.6,4.6
			c37,11.3,57.5,37.1,62.6,79c0.2,1.6-1,3.1-2.6,3.3C434.3,189.3,434.2,189.3,434.1,189.3z M178,24c-2.6,0-5.3,0.6-8,1.8
			c-2.8,1.2-5,2.8-6.4,4.7c-2.4,3.2-2.2,8.2-1.1,13.2c8-0.5,16.3-1.1,23.3-4c1.2-0.5,2.7-1.2,3.5-2.3c0.6-0.8,0.9-2,0.9-3.3
			c-0.1-3.8-3-7.6-7.1-9.1C181.6,24.3,179.9,24,178,24z"/>
	</g>
	<g>
		<polygon class="st2" points="56,77.6 91.5,46.8 120.3,82.8 86.1,112.6 		"/>
	</g>
	<g>
		<polygon class="st3" points="376,120.7 415.6,95.9 438,134.6 399.9,157.9 		"/>
	</g>
	<g>
		<polygon class="st4" points="106.2,297.6 102.6,312.2 81.6,397.8 47.9,398.4 71.2,303.9 74.9,289.6 		"/>
	</g>
	<g>
		<polygon class="st5" points="106.2,297.6 102.6,312.2 71.2,303.9 74.9,289.6 		"/>
	</g>
	<g>
		<rect x="104.8" y="290.7" class="st6" width="39.2" height="107.7"/>
	</g>
	<g>
		<rect x="104.8" y="290.7" class="st7" width="2.9" height="107.7"/>
	</g>
	<g>
		<rect x="107.6" y="386" class="st2" width="36.3" height="12.4"/>
	</g>
	<g>
		<polygon class="st8" points="345.3,398.4 126.1,398.4 126.1,212.3 343,212.3 343.3,243.4 		"/>
	</g>
	<g>
		<polygon class="st9" points="353.3,243.4 136.1,243.4 136.1,212.3 281.6,212.3 279.7,218.4 287.1,212.3 329.8,212.3 341.8,225.9 
			345.1,212.3 353,212.3 		"/>
	</g>
	<g>
		<rect x="126.1" y="212.3" class="st3" width="6.8" height="186.1"/>
	</g>
	<g>
		<rect x="60.1" y="146.7" class="st10" width="136.7" height="134"/>
	</g>
	<g>
		<rect x="64.7" y="151.9" class="st3" width="132.1" height="128.8"/>
	</g>
	<g>
		<path class="st11" d="M196.8,153.2c-3.9-1.9-7.5-4.3-9.3-5.5c-0.8-0.5-1.2-0.9-1.2-0.9s1.6,15.4-1.7,17.6c-3.3,2.1-9.4,2.6-12-3.7
			c0,0-1,7.9-7.2,6.9c-4.6-0.8-6.5-7.8-7.2-11.3c-0.1-0.4-0.1-0.7-0.2-1c0,0.3,0,0.8,0,1.2c-0.1,1.8-1,3.9-4.4,3.7
			c-5.7-0.4-10.4-13.3-10.4-13.3h-16.9c0,0,18.4-21.1,32-18.6c0,0,7.3-2.8,12.3-0.6c0.4,0.2,0.8,0.4,1.2,0.6c0,0,0.3-0.3,0.8-0.6
			c1.3-0.8,4.2-1.8,7.8,0.8c0.1,0,0.1,0.1,0.2,0.1c0,0,0.7-0.3,1.9-0.2c1.6,0.1,4.1,0.7,7.2,3.1c5.6,4.3,15.7,16,17.8,17.1
			C209.6,149.7,202.4,155.9,196.8,153.2z"/>
	</g>
	<g>
		<path class="st12" d="M77,260c-0.2,0-0.4,0-0.6-0.1c-1.1-0.3-1.6-1.4-1.3-2.5l30-96.6l29.3,96.6c0.3,1.1-0.3,2.2-1.3,2.5
			c-1.1,0.3-2.2-0.3-2.5-1.3l-25.5-84.2l-26.2,84.2C78.7,259.4,77.9,260,77,260z"/>
	</g>
	<g>
		<path class="st12" d="M132.5,226.4H74.9c-1.1,0-2-0.9-2-2s0.9-2,2-2h57.6c1.1,0,2,0.9,2,2S133.6,226.4,132.5,226.4z"/>
	</g>
	<g>
		<path class="st12" d="M163,259.7c-10.6,0-19.2-8.6-19.2-19.2s8.6-19.2,19.2-19.2s19.2,8.6,19.2,19.2S173.6,259.7,163,259.7z
			 M163,225.2c-8.4,0-15.2,6.8-15.2,15.2s6.8,15.2,15.2,15.2s15.2-6.8,15.2-15.2S171.4,225.2,163,225.2z"/>
	</g>
	<g>
		<path class="st12" d="M180.2,259.7c-1.1,0-2-0.9-2-2v-34.4c0-1.1,0.9-2,2-2s2,0.9,2,2v34.4C182.2,258.8,181.3,259.7,180.2,259.7z"
			/>
	</g>
	<g>
		<rect x="234.3" y="231.4" class="st13" width="43.4" height="39.6"/>
	</g>
	<g>
		<circle class="st0" cx="256" cy="231.4" r="4.7"/>
	</g>
	<g>
		<path class="st14" d="M289.1,298.3c0,0,7.1-12.5,10.7-14.4s19.2-1.3,21.1,4C322.8,293.3,289.1,298.3,289.1,298.3z"/>
	</g>
	<g>
		<path class="st15" d="M274.4,299.9l-8.7,9.2c-1,1.1-0.2,2.8,1.3,2.7l10.7-0.7l53.8-26.6c2.7-1.3,3.7-4.7,2.2-7.3l0,0
			c-1.3-2.3-4.1-3.2-6.5-2.1L274.4,299.9z"/>
	</g>
	<g>
		<path class="st9" d="M393.8,301.2c-0.7,0-1.4-0.5-1.5-1.3l-11.2-83.4c-0.1-0.8,0.5-1.6,1.3-1.7c0.8-0.1,1.6,0.5,1.7,1.3l11.2,83.4
			c0.1,0.8-0.5,1.6-1.3,1.7C393.9,301.2,393.8,301.2,393.8,301.2z"/>
	</g>
	<g>
		<path class="st9" d="M434.1,302.9h-54.4c-0.8,0-1.5-0.7-1.5-1.5s0.7-1.5,1.5-1.5h54.4c0.8,0,1.5,0.7,1.5,1.5
			S434.9,302.9,434.1,302.9z"/>
	</g>
	<g>
		<path class="st16" d="M280,313.7c-5.5-8-0.4-13.3,9.5-16.9c9.9-3.6,33.8-14,44-8.1c10.2,5.9,16.1,8.1,16.1,8.1l1.4,39.4
			c0,0-42.1,5.6-44.8-9.2c0,0-10.1,1.1-9.5-10.3C296.7,316.7,285.7,322.1,280,313.7z"/>
	</g>
	<g>
		<path class="st9" d="M402.8,361.1c-0.1,0-0.2,0-0.3,0c-12.2-2.1-25.7-8.9-26.2-9.1c-0.7-0.4-1-1.3-0.7-2c0.4-0.7,1.3-1,2-0.7
			c0.1,0.1,13.6,6.8,25.4,8.9c0.8,0.1,1.4,0.9,1.2,1.7C404.1,360.6,403.5,361.1,402.8,361.1z"/>
	</g>
	<g>
		<g>
			<path class="st17" d="M317.3,335.5c-5.9,0.8-11-3.2-12.3-7c-1.7-0.1-4.6-0.5-6.8-2.6c-1.8-1.7-2.8-4-3-6.9
				c-4.7,1.6-12.1,2-16.5-4.4c-2.3-3.4-3-6.6-2.1-9.6c1.3-3.9,5.3-7,12.3-9.6c1.2-0.4,2.5-0.9,4-1.5c9.5-3.6,26-8,36.4-6.6l0,0
				c-9.6-1.3-26.1,5.9-35.3,9.4c-1.5,0.6-2.9,1.1-4,1.5c-6,2.2-9.6,4.8-10.5,7.7c-0.7,2-0.1,4.3,1.7,7c4.9,7.3,14.4,2.8,14.8,2.6
				l23-11.2l-3.2,5.1l-17.6,8.6c-0.1,3.1,0.6,4.3,2.1,5.7c2.3,2.1,5.7,1.8,5.8,1.8l17-8.3l-2.1,4.1c0,0.2-12,6.1-12,6.3
				C309.9,330.7,312.1,334.1,317.3,335.5L317.3,335.5z"/>
		</g>
	</g>
	<g>
		<path class="st18" d="M379.6,303.7l-0.5,8.3l-0.2,4l-1.1,20.6l-0.2,4l-0.9,17.3l-11.9-4l-4-1.3l-14-4.7l-0.2-11.5l-0.1-4
			l-0.4-20.7l-0.1-4l-0.2-13.5c0,0,7.4,0.3,15,0.7c1.3,0.1,2.7,0.2,4,0.3c3.8,0.3,7.3,0.6,9.4,1
			C381.1,297.4,379.6,303.7,379.6,303.7z"/>
	</g>
	<g>
		<g>
			<path class="st19" d="M364.7,295.2V354l-4-1.3v-57.7C362,295,363.4,295.1,364.7,295.2z"/>
		</g>
	</g>
	<g>
		<g>
			<polyline class="st3" points="378.9,316 364.7,314.2 360.7,313.7 346,311.8 346,307.7 360.7,309.6 364.7,310.1 379.1,312 			"/>
		</g>
	</g>
	<g>
		<g>
			<polygon class="st20" points="377.8,336.6 377.5,340.6 364.7,338.9 360.7,338.4 346.5,336.5 346.4,332.5 360.7,334.4 
				364.7,334.9 			"/>
		</g>
	</g>
	<g>
		<path class="st9" d="M272.5,65c-22.8,13.6-7.4,29.6-7.4,29.6s-16.2-4-12.9,9.6c3.3,13.6,14.6,23.4,14.6,23.4l71,12.6
			c0,0,17.6-77.6-27.7-68.4C310,71.8,293.2,52.3,272.5,65z"/>
	</g>
	<g>
		<path class="st16" d="M344.8,163.3c0,0-26.6,27.2-32.1,27c-5.5-0.2-16.5-13-17.7-20.9l0,0c-0.8,0.2-16.1,3.8-19.2-7
			c-3.2-11.2-6.2-28.8-7.8-32.2c-1.6-3.5-5.3-14.7-2.4-18.5c4-5.3,11-1.5,16.6-2.1c5.7-0.6,16.4-5.5,19.6-7.2c3.2-1.7,7-0.2,7,4.7
			c0,4.2,2.2,14,2.8,16.6c0.1,0.4,0.4,0.6,0.8,0.6h1.1c0.3,0,0.6-0.2,0.7-0.6c0.3-2.6,2-12.8,12.3-9.5c9.9,3.2,5.7,14.8,2,19.5
			c-0.8,1-0.4,2.5,0.8,3l8.7,3.5L344.8,163.3z"/>
	</g>
	<g>
		<path class="st21" d="M312.8,190.3c-5.5-0.2-16.5-13-17.7-20.9c0,0,24.9,0.2,27.7-17.5C322.7,151.9,330.2,177.9,312.8,190.3z"/>
	</g>
	<g>
		<polygon class="st9" points="287.1,212.3 279.7,218.4 281.6,212.3 		"/>
	</g>
	<g>
		<path class="st18" d="M311.7,181.5v10.3l-2,1.7l-6.2,5.2l-3.2,2.6l-13.3,11h-5.5l4.4-14.1l2.2-7.2l2.7-8.5l1.7-5.5v0l2.4-7.5
			c0.9,4.9,4,7.8,7.3,9.5c1.4,0.8,2.9,1.3,4.2,1.7c1.2,0.3,2.3,0.5,3.2,0.7c0.1,0,0.2,0,0.2,0C311,181.4,311.7,181.5,311.7,181.5z"
			/>
	</g>
	<g>
		<g>
			<polygon class="st22" points="292.7,176.9 292.7,176.9 291,182.4 288.7,177.9 292.2,176.1 			"/>
		</g>
		<g>
			<polygon class="st22" points="304.9,201.4 301.3,203.2 300.3,201.2 303.5,198.6 			"/>
		</g>
		<g>
			<polygon class="st19" points="303.5,198.6 300.3,201.2 295,190.5 293.1,186.8 291,182.4 292.7,176.9 296.3,184.1 298.1,187.8 			
				"/>
		</g>
	</g>
	<g>
		<g>
			<polygon class="st22" points="288.3,191 286,198.2 283.3,200.6 280.7,197.6 			"/>
		</g>
		<g>
			<path class="st3" d="M306.5,180.6l-8.4,7.2l-3.1,2.7l-8.9,7.7l2.2-7.2l4.9-4.2l3.1-2.7l6.1-5.2
				C303.7,179.6,305.2,180.2,306.5,180.6z"/>
		</g>
	</g>
	<g>
		<g>
			<path class="st9" d="M285.4,123.8c-0.3,0-0.5-0.1-0.8-0.2c-0.7-0.4-0.9-1.3-0.5-2c0.1-0.1,6.7-11.1,19.7-4.1c0.7,0.4,1,1.3,0.6,2
				c-0.4,0.7-1.3,1-2,0.6c-10.4-5.6-15.5,2.6-15.7,3C286.4,123.6,285.9,123.8,285.4,123.8z"/>
		</g>
	</g>
	<g>
		<g>
			<path class="st9" d="M264.2,124.2c-0.5-0.1-1-0.4-1.2-1c-0.3-0.8,0.1-1.6,0.9-1.9c6.9-2.4,11.9,1.7,12.1,1.9
				c0.6,0.5,0.7,1.5,0.2,2.1c-0.5,0.6-1.5,0.7-2.1,0.2c-0.2-0.1-4-3.2-9.2-1.4C264.7,124.2,264.5,124.3,264.2,124.2z"/>
		</g>
	</g>
	<g>
		<path class="st3" d="M295.9,142.2c-6.5,0-11.7-5.3-11.7-11.7s5.3-11.7,11.7-11.7s11.7,5.3,11.7,11.7S302.4,142.2,295.9,142.2z
			 M295.9,120.7c-5.4,0-9.7,4.4-9.7,9.7s4.4,9.7,9.7,9.7s9.7-4.4,9.7-9.7S301.3,120.7,295.9,120.7z"/>
	</g>
	<g>
		<path class="st3" d="M268.6,148.8c-5.3,0-9.6-5.3-9.6-11.7s4.3-11.7,9.6-11.7c3.7,0,6.9,2.5,8.6,6.5l-1.9,0.8
			c-1.3-3.2-3.9-5.2-6.7-5.2c-4.2,0-7.6,4.4-7.6,9.7c0,5.4,3.4,9.7,7.6,9.7c2,0,3.8-1,5.2-2.7l1.6,1.3
			C273.6,147.6,271.2,148.8,268.6,148.8z"/>
	</g>
	<g>
		<g>
			<path class="st3" d="M97.9,77.1c0.8,0.8,1.2,1.9,1.2,3c1.5,1.9,1.3,4.2-0.9,5.8c-0.1,0.1-1.3,1-1.5,1.1c-2.8,2.1-6.4,2.5-7.6,3.3
				l0.2,0.3c0.5,0.7,0.3,1.6-0.3,2.1l-3.5,2.6c-0.7,0.5-1.6,0.3-2.1-0.3l-7-9.4c-0.5-0.7-0.3-1.6,0.3-2.1l3.5-2.6
				c0.4-0.3,0.9-0.4,1.3-0.2c0.1-0.1,0.2-0.2,0.2-0.3c0.5-1,0.2-4.1,0.5-5.6c0.1-0.6-0.2-1.3-0.6-2.1c-0.6-1.2-1.2-2.9-0.1-3.8
				c2.2-1.6,4-1,5.6,1.2c0.8,1.1,1,2.3,1.1,3.1l2.6-1.9c1.5-1.1,3.6-0.7,4.7,0.7c0.6,0.8,0.8,1.5,0.8,2.3
				C97.2,75,97.9,76.1,97.9,77.1z M88.1,91.5l-7-9.4l-3.5,2.6l7,9.4L88.1,91.5z M85.7,92c-0.5,0.4-1.2,0.3-1.5-0.2
				c-0.4-0.5-0.3-1.2,0.2-1.5c0.5-0.4,1.2-0.3,1.5,0.2C86.3,90.9,86.2,91.6,85.7,92z M94.4,72.9c-0.6-0.7-1.8-1-2.6-0.4l-4.1,3.1
				c-1.1-1.5-0.5-3-1.7-4.6c-0.7-0.9-1.7-2.2-3.5-0.9c-0.2,1.3,1.6,2.9,1.3,4.9c-0.3,2.2,0.3,5.6-1.1,6.6l5.6,7.5
				c1.6-1.2,5-1.4,7.6-3.3c0.1-0.1,1.4-1,1.5-1.1c1.4-1.1,1.9-2.5,0.2-4.2c0.4-0.8,0-2.2-1.1-2.7c0.5-1-0.8-2.8-1.7-2.8
				C95.1,74.5,95,73.7,94.4,72.9z"/>
		</g>
	</g>
	<g>
		<g>
			<path class="st18" d="M416.5,126.5l-6.7,10.5c-0.6,0.9-2,0.9-2.5-0.1l-5.7-11.3c-0.6-1.1,0.4-2.2,1.4-2.1l12.4,0.8
				C416.5,124.4,417.1,125.6,416.5,126.5z"/>
		</g>
	</g>
	<g>
		<g>
			<path class="st6" d="M242.4,265.7c-1.7,0-3.1-1.4-3.1-3.1v-18.8c0-1.7,1.4-3.1,3.1-3.1h27.2c1.7,0,3.1,1.4,3.1,3.1v18.8
				c0,1.7-1.4,3.1-3.1,3.1H242.4z M243,247.9c0,2,1.6,3.7,3.7,3.7c2,0,3.7-1.6,3.7-3.7s-1.6-3.7-3.7-3.7
				C244.6,244.3,243,245.9,243,247.9z M268.6,261.5v-7.3l-5.7-5.7c-0.3-0.3-0.8-0.3-1.1,0l-8.8,8.8l-3.6-3.6c-0.3-0.3-0.8-0.3-1.1,0
				l-4.7,4.7v3.1H268.6z"/>
		</g>
	</g>
	<g>
		<path class="st23" d="M279.7,151.2c-1.8,0-3.2-0.5-4.3-1.4c-2.9-2.6-1.7-7.9-0.7-12.2c0.3-1.3,0.6-2.5,0.7-3.5
			c0.6-5.2-1.1-6.2-1.1-6.2c-0.5-0.3-0.7-0.9-0.4-1.3c0.2-0.5,0.8-0.7,1.3-0.5c0.3,0.1,3.1,1.6,2.3,8.3c-0.1,1.1-0.4,2.3-0.7,3.7
			c-0.8,3.8-1.9,8.5,0.1,10.2c1.4,1.3,4.5,1.1,8.9-0.4c0.5-0.2,1.1,0.1,1.3,0.6s-0.1,1.1-0.6,1.3
			C283.7,150.8,281.5,151.2,279.7,151.2z"/>
	</g>
	<g>
		<g>
			<path class="st23" d="M283.6,159c-1.6-0.3-1.9-0.9-2-0.9c-0.5-0.2-0.8-0.7-0.6-1.3c0.2-0.5,0.7-0.8,1.3-0.6
				c0.2,0.1,4.9,1.4,10.3-4.1c0.4-0.4,1-0.4,1.4,0c0.4,0.4,0.3,0.9,0,1.4c-1.3,2.5-2.8,4.2-4.5,5C287.6,159.2,286,159.4,283.6,159z"
				/>
		</g>
	</g>
	<g>
		<ellipse transform="matrix(0.9727 -0.2319 0.2319 0.9727 -22.0745 72.179)" class="st9" cx="295.9" cy="130" rx="2.4" ry="3.2"/>
	</g>
	<g>
		
			<ellipse transform="matrix(0.9727 -0.2319 0.2319 0.9727 -23.7651 67.0851)" class="st9" cx="273.4" cy="134.6" rx="1.7" ry="3.2"/>
	</g>
	<g>
		<path class="st3" d="M275.3,130.9l-0.5-1.9c0.2-0.1,6.1-1.6,10.5-1l-0.3,2C281,129.4,275.3,130.9,275.3,130.9z"/>
	</g>
	<g>
		<g>
			<polygon class="st3" points="305,124.9 304,123.2 317.5,115.2 315.4,118.3 			"/>
		</g>
	</g>
	<g>
		<path class="st23" d="M326.5,130.4c-0.2,0-0.5-0.1-0.7-0.3c-0.4-0.4-0.4-1,0-1.4c0.9-1,2.2-3.2,2.1-5.1c-0.1-1-0.5-1.8-1.4-2.4
			c-3-2.2-6.7,0.3-6.7,0.3c-0.5,0.3-1.1,0.2-1.4-0.2c-0.3-0.4-0.2-1.1,0.2-1.4c0.2-0.1,4.9-3.4,9.1-0.3c1.3,1,2.1,2.3,2.2,3.9
			c0.2,2.6-1.4,5.4-2.6,6.6C327.1,130.3,326.8,130.4,326.5,130.4z"/>
	</g>
	<g>
		<polygon class="st9" points="345.1,212.3 341.8,225.9 329.8,212.3 		"/>
	</g>
	<g>
		<path class="st18" d="M355.3,170.5l-1.1,4.6l-1.1,4.6l-4.1,17l-1.1,4.6l-2.7,11.1h-15.3l-6.2-7l-2.8-3.1l-7.1-8.1l-2-2.3v-10.3
			c0.3-0.1,0.6-0.1,0.9-0.2c3.6-0.9,6.9-3,9.9-5.7c1-0.9,1.9-1.8,2.8-2.9c3.4-3.8,6.2-8.3,8.5-12.5c0.7-1.3,1.3-2.6,1.9-3.7
			c2.7-5.5,4.1-9.7,4.1-9.7l8.1,12.4l2.4,3.7L355.3,170.5z"/>
	</g>
	<g>
		<g>
			<path class="st22" d="M352.7,158.9l-2.4,3.9l-2.4-3.7l1.5-2.3c0.6-0.9,1.8-1.2,2.8-0.6C353,156.8,353.3,158,352.7,158.9z"/>
		</g>
		<g>
			<path class="st22" d="M323.6,205.3l-2.7,4.3c-0.4,0.6-1,0.9-1.7,0.9c-0.4,0-0.7-0.1-1.1-0.3c-0.9-0.6-1.2-1.8-0.6-2.8l3.3-5.3
				L323.6,205.3z"/>
		</g>
		<g>
			<polygon class="st19" points="350.3,162.8 347,167.9 344.9,171.4 336.7,184.3 334.6,187.8 323.6,205.3 320.8,202.2 331.7,184.9 
				333.9,181.4 342,168.5 344.2,165 347.9,159.1 			"/>
		</g>
	</g>
	<g>
		<g>
			<path class="st22" d="M325.2,172.7c-0.9,1-1.8,2-2.8,2.9l-4.7-4.7c-0.8-0.8-0.8-2.1,0-2.8c0.8-0.8,2-0.8,2.8,0L325.2,172.7z"/>
		</g>
		<g>
			<path class="st22" d="M356.7,207.3c-0.4,0.4-0.9,0.6-1.4,0.6c-0.5,0-1-0.2-1.4-0.6l-6.1-6.1l1.1-4.6l7.8,7.9
				C357.5,205.3,357.4,206.6,356.7,207.3z"/>
		</g>
		<g>
			<path class="st3" d="M348.9,196.6l-1.1,4.6l-13.2-13.4l-2.9-2.9l-9.2-9.3c1-0.9,1.9-1.8,2.8-2.9l8.6,8.7l2.9,2.9L348.9,196.6z"/>
		</g>
	</g>
	<g>
		<g>
			<path class="st22" d="M335.7,156.4c-0.6,1.2-1.2,2.5-1.9,3.7l-7.5-7.6c-0.8-0.8-0.8-2.1,0-2.8c0.8-0.8,2-0.8,2.8,0L335.7,156.4z"
				/>
		</g>
		<g>
			<path class="st22" d="M365.1,189.1c-0.4,0.4-0.9,0.6-1.4,0.6c-0.5,0-1-0.2-1.4-0.6l-9.3-9.4l1.1-4.6l11,11.2
				C365.9,187.1,365.9,188.3,365.1,189.1z"/>
		</g>
		<g>
			<path class="st20" d="M354.1,175.1l-1.1,4.6l-8.2-8.2l-2.9-2.9l-8.2-8.3c0.7-1.3,1.3-2.6,1.9-3.7l8.5,8.6l2.9,2.9L354.1,175.1z"
				/>
		</g>
	</g>
	<g>
		<path class="st19" d="M259.3,302.9H156c-0.8,0-1.5-0.7-1.5-1.5s0.7-1.5,1.5-1.5h103.3c0.8,0,1.5,0.7,1.5,1.5
			S260.1,302.9,259.3,302.9z"/>
	</g>
	<g>
		<path class="st19" d="M259.3,315.3H156c-0.8,0-1.5-0.7-1.5-1.5s0.7-1.5,1.5-1.5h103.3c0.8,0,1.5,0.7,1.5,1.5
			S260.1,315.3,259.3,315.3z"/>
	</g>
	<g>
		<path class="st19" d="M234.3,327.6h-78.1c-0.8,0-1.5-0.7-1.5-1.5s0.7-1.5,1.5-1.5h78.1c0.8,0,1.5,0.7,1.5,1.5
			S235.1,327.6,234.3,327.6z"/>
	</g>
	<g>
		<path class="st19" d="M216.7,381.4h-48.4c-7.4,0-13.5-6.1-13.5-13.5v-8c0-7.4,6.1-13.5,13.5-13.5h48.4c7.4,0,13.5,6.1,13.5,13.5v8
			C230.2,375.4,224.1,381.4,216.7,381.4z M168.2,349.4c-5.8,0-10.5,4.7-10.5,10.5v8c0,5.8,4.7,10.5,10.5,10.5h48.4
			c5.8,0,10.5-4.7,10.5-10.5v-8c0-5.8-4.7-10.5-10.5-10.5H168.2z"/>
	</g>
	<g>
		<path class="st3" d="M311.4,381.4H263c-7.4,0-13.5-6.1-13.5-13.5v-8c0-7.4,6.1-13.5,13.5-13.5h48.4c7.4,0,13.5,6.1,13.5,13.5v8
			C324.9,375.4,318.8,381.4,311.4,381.4z M263,349.4c-5.8,0-10.5,4.7-10.5,10.5v8c0,5.8,4.7,10.5,10.5,10.5h48.4
			c5.8,0,10.5-4.7,10.5-10.5v-8c0-5.8-4.7-10.5-10.5-10.5H263z"/>
	</g>
	<g>
		<path class="st19" d="M327.8,235c-0.3,0-0.5-0.1-0.7-0.3c-0.4-0.4-0.4-1,0-1.4l13-13.3c0.4-0.4,1-0.4,1.4,0c0.4,0.4,0.4,1,0,1.4
			l-13,13.3C328.4,234.9,328.1,235,327.8,235z"/>
	</g>
	<g>
		<path class="st19" d="M340.8,235c-0.3,0-0.5-0.1-0.7-0.3l-13-13.3c-0.4-0.4-0.4-1,0-1.4c0.4-0.4,1-0.4,1.4,0l13,13.3
			c0.4,0.4,0.4,1,0,1.4C341.3,234.9,341.1,235,340.8,235z"/>
	</g>
	<g>
		<g>
			<polygon class="st20" points="313.7,181.3 313.7,194.1 311.7,191.8 309.7,193.5 309.7,181.3 			"/>
		</g>
	</g>
	<g>
		<g>
			<path class="st17" d="M184.8,165.3c-1.7,1.7-4.1,2.4-6.9,2c-2.6-0.3-4.2-1.7-5.1-3.2c-0.8,2-2.5,3.9-5.5,4.5
				c-0.4,0.1-0.8,0.1-1.1,0.1c-4.6,0-7.2-6.5-8.1-9.6c-1.7,1.3-3.4,1.8-5.1,1.5c-6.2-1.3-10.3-13.1-10.5-13.6l0.5-0.2l1.3-0.5
				c1.1,3.1,4.8,11.4,9,12.3c1.5,0.3,3-0.4,4.5-2.1l0.1-0.1l0.2-0.2l1-1.1l0.4,1.9c0,0.1,2.5,10.7,7.3,9.7c4.7-1,4.7-5.8,4.7-6.5
				v-0.1l2-0.1c0,0,0,0,0,0.1c0,0.5,0.4,4.7,4.6,5.2c2.2,0.3,4-0.2,5.2-1.4c2.3-2.3,3.1-7.2,2.3-14.2c-1.1-9.7-4.2-18.2-5.4-21.2
				c0.1,0,0.1,0.1,0.2,0.1c0,0,0.7-0.3,1.9-0.2c1.3,3.3,3.8,10.6,5,19.2c0.1,0.6,0.2,1.2,0.2,1.8
				C188.6,157.2,187.6,162.6,184.8,165.3z"/>
		</g>
	</g>
	<g>
		<g>
			
				<rect x="157.4" y="128.2" transform="matrix(0.9999 -1.110032e-02 1.110032e-02 0.9999 -1.5739 1.767)" class="st17" width="2" height="29"/>
		</g>
	</g>
	<g>
		<g>
			<path class="st17" d="M173.5,160.6l-1,0l-1,0l-1-33.1c0.4,0.2,0.8,0.4,1.2,0.6c0,0,0.3-0.3,0.8-0.6L173.5,160.6z"/>
		</g>
	</g>
</g>
</svg>
